<svg id="logosandtypes_com" xmlns="http://www.w3.org/2000/svg" viewBox="0 0 150 150"><defs><style>.b{fill:#00adc1}</style></defs><path d="M0 0h150v150H0z" fill="none"/><path class="b" d="M58.31 30.25h1.06v4.44h-1.06zM60.98 30.25h1.06v4.44h-1.06z"/><path class="b" d="M61.33 28.13h-5a.56.56 0 0 0-.53.53v.88h-2.45a1.59 1.59 0 0 0-1.6 1.6l-.18 2.66-.53.54a1.88 1.88 0 0 0-.36 1.24v2.84a.57.57 0 0 0 .54.53h.53a1.92 1.92 0 0 0 2 1.42 2.13 2.13 0 0 0 0-4.26 2.34 2.34 0 0 0-1.77 1.06v-.88h.17a.54.54 0 1 0 0-1.07h-.17v-.18l.53-.53h3.37v3.73a.56.56 0 0 0 .53.53h.71a18.4 18.4 0 0 1 2-1.24h-2.23v-1.24h4.8a31.44 31.44 0 0 1 4.43-1.25h-9.23v-6h6.21c-.53 0-1.06-.53-1.77-.88m-7.81 9.58a.89.89 0 1 1-.88.88c.17-.53.53-.88.88-.88m2.31-4.26h-3l.17-2.34a.38.38 0 0 1 .36-.35h2.48z"/><path class="b" d="M64.52 30.25h-.71v4.44h1.07v-4.08c-.18-.18-.18-.36-.36-.36M66.65 31.67v2.84h1.07v-2.13a3.49 3.49 0 0 1-1.07-.71M37 48.88v-5l3 3 1.24-.53V32.21l3-1.6a9.35 9.35 0 0 0-.71 2.13 10.86 10.86 0 0 0 1.24 7.27 3.51 3.51 0 0 0 1.06 2.49l.36.53a.53.53 0 0 0 .71 0l.35-.36.71.71a.53.53 0 0 0 .71 0 1.09 1.09 0 0 1 1.42 0A.93.93 0 0 1 50 44.8a1.06 1.06 0 0 1-1.41 0 .56.56 0 0 0-.71 0 .53.53 0 0 0 0 .71A2.14 2.14 0 1 0 51 42.67a1.93 1.93 0 0 0-2.48-.35l-.36-.36.36-.53a.56.56 0 0 0 0-.71l-.36-.53a4.61 4.61 0 0 0-2-1.24 8 8 0 0 1 2.31-10.82l1.77-.89L50 26l-8.87.17v-2.13l-.71-.71h-4.11l-.71.71V49.8l.89-.53zm10.29-8l-.71.71a3.2 3.2 0 0 1-.71-1.6 3.86 3.86 0 0 1 1.42.89m-.53-13.48l-.53.53-1.76.87-1.95-1.41zm-5.68.71l2 1.41-2 1.07zm-1.42 16.5l-2.46-2.47 2.48-2.34zm0-7.81l-2.3-1.78 2.3-2zm0-10.11v3.54L37.2 28.3l2.48-2.3zM37 24.8h2.13L37 26.88zm0 5.15l2.31 1.95L37 33.8zm0 6.74l2.31 1.78L37 40.72zM45.72 67.16a3.64 3.64 0 0 0 3.55-3.19 3.66 3.66 0 0 0-.71-2.67 3.91 3.91 0 0 0-2.49-1.42 3.63 3.63 0 0 0-2.66.71A3.91 3.91 0 0 0 42 63.08a3.62 3.62 0 0 0 3.19 4.08h.54m-1.07-2.84a2.46 2.46 0 0 1-.35-1.06 1.51 1.51 0 0 1 1.42-1.25h.17a1 1 0 0 1 .89.54 2.48 2.48 0 0 1 .36 1.06 1 1 0 0 1-.54.89 2.46 2.46 0 0 1-1.06.35 1 1 0 0 1-.89-.53M128.57 65.56c-.17.18-.17.36-.35.36l-1.42 1.42-.18.17a4 4 0 0 1-1.24.71 3.89 3.89 0 0 0-2.31 2.67 3.25 3.25 0 0 1-.17-1.78 7.28 7.28 0 0 1 1.42-3.19c.17-.18.35-.54.53-.71a.53.53 0 0 0 0-.71.93.93 0 0 0-.71-.36 9.35 9.35 0 0 0-3.9 1.42 4.91 4.91 0 0 1 1.42-2.13l.17-.35a.79.79 0 0 0 0-.89.78.78 0 0 0-.88-.18c-.89.54-1.78.89-2.67 1.42a12.1 12.1 0 0 1-2.3.89 7.12 7.12 0 0 0-1.6.89 2.6 2.6 0 0 1 .53-.71 4.19 4.19 0 0 1 1.24-1.24c.18-.18.54-.36.71-.71a12.45 12.45 0 0 0 2.31-3 .33.33 0 0 0 0-.53.39.39 0 0 0-.35-.36 9.29 9.29 0 0 0-2.13-.35 1.39 1.39 0 0 0-.89.35v-.17c.18-.54.35-.89.71-1.07l.18-.18a1.82 1.82 0 0 0 .17-.71c0-.17-.17-.35-.71-.35H116a2.44 2.44 0 0 1-1.6 0 10.57 10.57 0 0 0-3.37 0l.18-.18a4.66 4.66 0 0 1 2.66-1.24 9.38 9.38 0 0 0 2-.89c.18-.18.35-.18.53-.35a.67.67 0 0 0 .53-.71.93.93 0 0 0-.53-.71 3.15 3.15 0 0 0-1.77-.36 3 3 0 0 0 .89-.71c.17-.35.53-.35 1.06-.53.18 0 .35-.35.53-.53a.71.71 0 0 0-.35-.71c-.18 0-.18-.18-.36-.18-.18-.18-.35-.18-.53-.35A4.59 4.59 0 0 1 114 46.8a2.8 2.8 0 0 0-1.25-1.24 3.36 3.36 0 0 0-1.24-.35 4 4 0 0 1 2.49.18 13.37 13.37 0 0 1 3.19 1.59s.35.36.71.18a.57.57 0 0 0 .53-.53 5 5 0 0 0-1.24-3.91 8.89 8.89 0 0 1 2.66 1.25.83.83 0 0 0 .89 0 1.33 1.33 0 0 0 .18-.89c-.36-.53-.36-.53-.36-.71s-.18-.18-.18-.53c-.17-.18 0-.54 0-.89v-.53a4.58 4.58 0 0 1 .54-2 5 5 0 0 1-1.07-.89 8 8 0 0 0-.89 2.66v1.42a8.73 8.73 0 0 0-3.54-.89c-.36 0-.54.18-.54.36-.17.17 0 .53.18.71 1.07 1.06 2.13 1.95 2.31 3.19a18.09 18.09 0 0 0-2.66-1.24c-2.13-.89-4.09-.18-5.68.53-.18.18-.36.36-.36.53s.18.54.36.54a.9.9 0 0 0 .53.17 13.88 13.88 0 0 1 2.84.71 2.77 2.77 0 0 1 .71.53 5.85 5.85 0 0 0 2 2.31c-.18.18-.53.36-.71.71a.79.79 0 0 1-1.06.36c-.54-.18-.71.17-.89.35a.79.79 0 0 0 0 .89 2.15 2.15 0 0 0 2.13 1.06 3 3 0 0 1-.89.36 7.74 7.74 0 0 0-3.19 1.59 1.35 1.35 0 0 1-.89.36 1.17 1.17 0 0 0-1.06.53 1.31 1.31 0 0 0 .35 1.24c.18.36.53.36.89.54h1.06a9.49 9.49 0 0 1 3.2 0 1.12 1.12 0 0 1 .71.17.66.66 0 0 0-.18.54 1.66 1.66 0 0 1-.71 1.06.66.66 0 0 0-.53.71 1.16 1.16 0 0 0 .35.89c.53.53 1.24.17 1.6 0a8.38 8.38 0 0 0 1.24-.71c.18 0 .18-.18.35-.18l.18-.18h.71c-.53.71-1.06 1.24-1.59 2a2.56 2.56 0 0 1-.71.54 9.51 9.51 0 0 0-1.47 1.37 4.8 4.8 0 0 0-1.07 3c0 .18.18.36.18.53a.64.64 0 0 0 .53.18.94.94 0 0 0 .71-.35h.18a13.12 13.12 0 0 1 2.13-1.25 13.1 13.1 0 0 0 2.3-1.06.18.18 0 0 0 .18-.18 3.4 3.4 0 0 0-.35 2.31c0 .18.17.35.35.53h.71a12.63 12.63 0 0 1 3-1.6 8.4 8.4 0 0 0-1.24 3.2 8.24 8.24 0 0 0 1.41 5 1.12 1.12 0 0 0 .71.17c.18-.17.36-.35.36-.53 0-.71.18-1.42.18-2a2.12 2.12 0 0 1 1.42-2 8.16 8.16 0 0 0 1.77-.89l.18-.18.71-.71.35-.35a2.48 2.48 0 0 0-.18-1.6M70.56 16.59h1.42v1.42h-1.42zM75.88 16.59h1.42v1.42h-1.42z"/><path class="b" d="M69 14.8l4.44-3.2v2.84c0 .18 0 .36.17.36a.53.53 0 0 0 .71 0h.18l4.26-3.2v2.67a.65.65 0 0 0 .18.53.53.53 0 0 0 .71 0H80l4.26-3.2v1.42h1.06v-2.46a.67.67 0 0 0-.17-.53.53.53 0 0 0-.71 0l-.18.18L80 13.4v-2.84a.64.64 0 0 0-.18-.53.53.53 0 0 0-.71 0l-.17.18-4.3 3.19v-2.84a.64.64 0 0 0-.18-.53.53.53 0 0 0-.71 0l-5.68 4.08a.64.64 0 0 0-.18.53v6.39c.36.18.71.53 1.07.71zM63.81 24.8l.54.36.71-1.24-.54-.36c-.71-.35-1.24-.71-1.95-1.06l-.71-.36-.71 1.24.89.36c.53.35 1.24.71 1.77 1.06M89.72 35.58l.71-.18-.36-1.42-.71.18c-.71.18-1.24.18-2 .35h-.66l.18 1.42h.71a8.78 8.78 0 0 1 2.13-.35M73.75 31.67l.89-1.24L73 29.37a3.19 3.19 0 0 1-.71-.54l-.71-.35-.89 1.24.54.36a3.07 3.07 0 0 0 .71.53zM67.54 27.24c.18.18.53.35.89.71l.53.35.89-1.06-.54-.36c-.35-.35-.71-.53-.88-.71s-.54-.35-.71-.53l-.53-.35-.89 1.06.53.36a2.77 2.77 0 0 0 .71.53M84.57 35.93l.18-1.42H84a7.42 7.42 0 0 1-2-.35l-.71-.18L81 35.4l.71.18a9.29 9.29 0 0 0 2.13.35zM78.72 34.51l.53-1.24-.53-.35a19.62 19.62 0 0 1-1.78-.89l-.71-.36-.71 1.25.71.35c.71.36 1.25.71 2 1.07zM119.88 54.74c1.07 5.68 6.57 8.87 6.92 9.23.18 0 .71.35 1.6.71a6.85 6.85 0 0 1-1.07-2.31c-1.06-.71-5.14-3.55-5.85-7.81-.53-2.84.53-5.85 2.84-9v-.76a4.81 4.81 0 0 0-.18-1.59l-.36.35c-3.37 3.73-4.61 7.45-3.9 11.18M114.91 90.58h-.35a24 24 0 0 1-2.13-3.19c-1.07-1.6-2.13-3.2-3-4.44a2.63 2.63 0 0 0 .89-2.66s-.35-2.84-1.6-3a1 1 0 0 0-.88.53 3.3 3.3 0 0 1-1.25 2.13 1.09 1.09 0 0 0-.71-.17 3 3 0 0 0-.35-3.37.71.71 0 0 0-.71-.36 1.34 1.34 0 0 0-.71.36c0 .17-.18.35-.18.53-.17.53-.35 1.06-1.77 1.77a3.39 3.39 0 0 0-2 2.49c-.36-.18-.89-.36-1.25-.54a2.81 2.81 0 0 0-2.3.54 1.34 1.34 0 0 0-.71 1.24 2.41 2.41 0 0 0 .89 1.59c-.71.18-1.25.18-2 .36a10 10 0 0 1-1.24 1.6 27 27 0 0 0 5-.89.57.57 0 0 0 .53-.53.92.92 0 0 0-.35-.71 4.27 4.27 0 0 1-1.6-1.24 1.32 1.32 0 0 1 1.24-.36 3.73 3.73 0 0 1 2 1.24.794.794 0 1 0 1.42-.71c-.71-2 .54-2.48.89-2.66a5 5 0 0 0 1.77-1.42 2.45 2.45 0 0 1-1.06 1.78c-.35.17-.35.71-.18 1.06s.71.36 1.07.18a1.48 1.48 0 0 1 1.42-.18.88.88 0 0 0 .88.18 3.82 3.82 0 0 0 1.78-2 3 3 0 0 1 0 1.77c-.18.36-.36.53-.53.53s-.54.18-.71.71a1.1 1.1 0 0 0 .17.71c.89 1.07 2.31 3.2 3.55 5 1.6 2.48 2.13 3.37 2.66 3.55.18.18.36.18.71.18h.36a3.77 3.77 0 0 1-.36 2 .38.38 0 0 0-.35.35 12.35 12.35 0 0 1-1.24 1.42c-.54.36-1.07.18-2-.18a2.55 2.55 0 0 0-1.06-.35 11.13 11.13 0 0 0-5.5-.18 10.24 10.24 0 0 0-3 1.07c-1.24.53-1.77 3.37-2.13 4.43a1 1 0 0 0 .54.89h.17c.36 0 .71-.18.71-.53.36-1.6.89-3.2 1.25-3.37a7.67 7.67 0 0 1 2.66-.89 10.29 10.29 0 0 1 4.79.18 1.32 1.32 0 0 1 .71.35c.88.36 2.3 1.07 3.55 0a5.49 5.49 0 0 0 1.24-1.6h.18c.17 0 .35-.17.53-.35s1.42-2.48.35-3.9c.18-.71-.17-.71-.71-.89"/><path class="b" d="M117.75 74.61a7.41 7.41 0 0 0-5.68 2.48c-.17.18-.35.36-.35.54l.18.71c1.77.17 3.55 2.13 3.72 2.13l.38.33.35-.18a2.13 2.13 0 0 1 1.42.18l-2 3.73h-3.55l1.42 1.77h2.66c.71 0 1.24.18 2 .18a19.7 19.7 0 0 1 4.62 1.06l1.08-1.57a26.74 26.74 0 0 0-6.56-1.42l1.77-3.2a1.8 1.8 0 0 1 .71.89l.18.71.71-.18a3.5 3.5 0 0 1 2.84 1.24l.53.54.53.17a6.37 6.37 0 0 0 1.07-3.54 8.36 8.36 0 0 0-8-6.57m5.68 8.34a5.59 5.59 0 0 0-3.19-1.42A5.06 5.06 0 0 0 116 79.4a27.15 27.15 0 0 0-2.66-1.95 6.05 6.05 0 0 1 4.25-1.6 5.78 5.78 0 0 1 6 5.5 2.25 2.25 0 0 1-.18 1.6M99.83 93.42a4 4 0 0 1 1.24-.18c.36 0 .71 0 .89-.35a1.33 1.33 0 0 0 .18-.89 1.84 1.84 0 0 0-.89-1.07 1.7 1.7 0 0 0-1.6-.35c-1.24-1.42-2.83-2.66-3.9-2.84a2 2 0 0 0-1.06 0 5.1 5.1 0 0 0-3.2 1.24 6.08 6.08 0 0 0-1.95 3 13.41 13.41 0 0 0-.35 1.42 6.63 6.63 0 0 0 .71 3.55l.35.71a14.83 14.83 0 0 0 2.31 3 2.9 2.9 0 0 0 1.59.71.66.66 0 0 0 .54-.18c.88-.35 1.24-1.59 1.06-3.37 0-.35-.35-2-.35-2.48a11 11 0 0 0-.4-1.21s-.18-1.78.71-2.13a1.52 1.52 0 0 1 1.78.53c0 .18-.18.36-.18.71a2.24 2.24 0 0 0 .71 2.13.78.78 0 0 0 .88.18 1 1 0 0 0 .54-.71c-.18-.89 0-1.24.35-1.42m-5.5 6.56a1.75 1.75 0 0 1-1.06-.35 8.29 8.29 0 0 1-2-2.31 3.33 3.33 0 0 1 3-1.06 4.91 4.91 0 0 1 .18 1.42c.18 1.24 0 2.3-.18 2.3m-2.66-5.5a.56.56 0 0 1 .35-.17h.54v1.06c-.18 0-.18 0-.36.18-.35-.53-.35-.89-.53-1.07m6.56-1.06a2.16 2.16 0 0 1 .18-.89.33.33 0 0 0 0-.53 2.8 2.8 0 0 0-1.14-1.2 2.44 2.44 0 0 0-2 0 3.12 3.12 0 0 0-1.24.88 5.08 5.08 0 0 0-.18 3.38h-.36V93.8a.47.47 0 0 0-.53-.53 3.64 3.64 0 0 0-1.42 0 2 2 0 0 0-1.06.71 1.27 1.27 0 0 0 .18 1.42.64.64 0 0 1 .17.35c0 .18.18.18.18.36-.18.18-.35.18-.53.35a6.65 6.65 0 0 1-.53-2.83c0-.18.17-.71.17-.89v-.18a5.08 5.08 0 0 1 1.6-2.48 5.21 5.21 0 0 1 2.66-1.07c1.42-.17 3.55 1.78 4.26 2.66a.64.64 0 0 0 .53.18 1.66 1.66 0 0 1 1.24.36 2.43 2.43 0 0 0-1.42.35c-.17 0-.53.36-.71.89"/><path class="b" d="M93.44 97.85a.34.34 0 0 0-.53 0 .38.38 0 0 0-.35.36.33.33 0 0 0 0 .53.38.38 0 0 0 .35.36c.18 0 .18.17.36.17h.17a.38.38 0 0 0 .36-.35.33.33 0 0 0 0-.53c-.18-.18-.18-.36-.36-.54M77.83 23.16h3.9v1.42h-3.9zM77.83 25.64h3.9v1.42h-3.9zM88.83 16.8h-1.42c-.18 0-.18 0-.18.18v1.24h-1.41c-.18 0-.18 0-.18.18v1.4c0 .17 0 .17.18.17h1.24v1.25c0 .17 0 .17.17.17h1.42c.18 0 .18 0 .18-.17v-1.08h1.24c.18 0 .18 0 .18-.18v-1.59c0-.18 0-.18-.18-.18h-1.24v-1.24c.17-.15.17-.15 0-.15M90.25 29.37v-3h.89v-.89h-5.86v.89h.89v3.73h.89v-3.75h2.48v3.19a1.82 1.82 0 0 0 .71-.17"/><path class="b" d="M82.62 14.46v6.39h-6.39a.57.57 0 0 0-.53.53v5.15a4.79 4.79 0 0 0 1.24.71v-5.32h5.86v7.8a3 3 0 0 0 1.2.18V15h8.34v13.13l1.24-.89v-5.15h5.86v2.49l.17.17a1 1 0 0 1 .89-.53v-2.84a.56.56 0 0 0-.53-.53h-6.35v-6.39a.56.56 0 0 0-.53-.53h-9.58a.62.62 0 0 0-.89.53M87.59 71.8v4.62a1.1 1.1 0 0 1 .71.17 1.34 1.34 0 0 1 .71.36l2.13-4.15a3.56 3.56 0 0 0-3.55-1M86.35 76.56l-1.42-4.43a3.27 3.27 0 0 0-3 1.77l3.2 3.37a2.25 2.25 0 0 1 1.24-.71M79.61 79.4h4.61a1.06 1.06 0 0 1 .18-.71c0-.18.17-.53.17-.71l-4.08-2a3.43 3.43 0 0 0-.88 3.37M81.73 84.9l3.38-3.19a2.77 2.77 0 0 1-.71-1.24L80 81.89a3.25 3.25 0 0 0 1.77 3M83.86 86.5l.18.18h2.66v-4.62a1.1 1.1 0 0 1-.71-.17c-.18 0-.53-.18-.71-.18l-1.77 3.37.35 1.42M92.73 85.26l-3.19-3.37a2.91 2.91 0 0 1-1.24.71l1.42 4.43a3.25 3.25 0 0 0 3-1.77M95.22 79.8h-4.61a1.07 1.07 0 0 1-.18.71 1.37 1.37 0 0 1-.36.71l4.08 2.12a3.53 3.53 0 0 0 1.07-3.54M94.86 77.09a3.25 3.25 0 0 0-1.77-3l-3.37 3.19a3 3 0 0 1 .71 1.24zM89.72 79.58a2.31 2.31 0 1 0-2.31 2.31 2.36 2.36 0 0 0 2.31-2.31M87.59 54.03h1.42v1.42h-1.42zM87.59 56.34h1.42v1.42h-1.42zM102.85 54.03h1.42v1.42h-1.42zM102.85 56.34h1.42v1.42h-1.42zM106.04 33.09h1.42v1.42h-1.42zM97.53 28.66h1.42v1.42h-1.42zM50.33 73.55c4.79 1.06 9.58 3.54 12.24 6.56l1.6-.53c-2.66-3.37-8.16-6.39-13.49-7.63a24 24 0 0 0-15.25 1.24v1.78a20.91 20.91 0 0 1 14.9-1.42"/><path class="b" d="M52.46 70.71a27.69 27.69 0 0 1 13.48 8l1.6-.53c-2.48-3.37-8.16-7.1-13.31-8.69a10.08 10.08 0 0 0 .89-.54c.18-.17.53-.35.71-.53 5 1.42 11 5.86 13.31 9.23l1.59-.54c0-.17-.17-.17-.17-.35a23.61 23.61 0 0 0-2-2.31c.36-.35 1.42-.88 1.6-1.06 3.73-2.13 13.84-5.32 19-3.9l.17.17a11.29 11.29 0 0 0 5.68 2h1.42a8.72 8.72 0 0 0 3-.7.17.17 0 0 0 .17-.18 5 5 0 0 1 2.84-.18 4.68 4.68 0 0 1 1.25.71.17.17 0 0 1 .17.18c.18.17.36.35.53.35a14.29 14.29 0 0 0 5.68 2.84 10.68 10.68 0 0 0 4.08-.35c.18 0 .54-.18.71-.18a8.68 8.68 0 0 1 2.31-.71 10.38 10.38 0 0 1 4.08 0 6.52 6.52 0 0 1-.71-1.95h-1.06a8.68 8.68 0 0 0-4.62.71 1.87 1.87 0 0 1-.71.17 7.26 7.26 0 0 1-2.84.36h-.17a10.9 10.9 0 0 1-5-2c-.18 0-.18-.18-.36-.18-.53-.35-1.06-.89-1.59-1.24-.36-.18-.53-.36-.89-.53a5.44 5.44 0 0 0-4.44.17 6.37 6.37 0 0 1-3.72.54c-2.49 0-5.5-2.13-5.5-2.13a20.89 20.89 0 0 0-6.39-3.73 26.67 26.67 0 0 1 7.45-2.66 3.88 3.88 0 0 1 1.5-.17c.53 0 1.07-.18 1.78-.18h5.5a25.11 25.11 0 0 1 12.77 4.44 5.1 5.1 0 0 1 1.07-1.6 31 31 0 0 0-6.39-3.19v-8.19a.63.63 0 0 0-.18-.53.64.64 0 0 0-.53-.18h-3.9v-.36c0-.17-.18-.53-.36-.53l-5-3.19v-.71h3.91a.65.65 0 0 0 .53-.18.64.64 0 0 0 .18-.53v-2.31a.64.64 0 0 0-.18-.53.65.65 0 0 0-.53-.18h-4.59a.65.65 0 0 0-.53.18.64.64 0 0 0-.18.53v3.73l-5 3.19c-.18.18-.36.36-.36.53v.36h-3.69a.62.62 0 0 0-.7.71v8.34s-.18 0-.18.17l-1.07.54c-.17 0-.17.17-.35.17a14.6 14.6 0 0 1-1.42-2.13 5.11 5.11 0 0 1-.53-1.77 5.93 5.93 0 0 1-.18-1.77 7.93 7.93 0 0 1 .35-2l.56-1.91c-.71 0-1.6-.17-2.31-.17v-2.31c0-.18.18-.53.18-.71s0-.18.17-.36v-.37c.18-.18.18-.36.36-.71a.18.18 0 0 1 .18-.18v-.11c0-.18.17-.18.17-.36l.54-.53.17-.18h.18c.18-.18.36-.18.53-.35l.18-.18h.36c.35-.18.71-.18 1.06-.36h1.77a3.29 3.29 0 0 1 1.25.36c.17 0 .17 0 .35.18h.18c.18 0 .18.17.35.17.18.18.54.18.71.36 1.42.53 2.84 0 4.26-.36.18 0 .53-.17.71-.17v-1.46a.67.67 0 0 0-.53.17c-.53.18-1.07.18-1.78.36a.65.65 0 0 0-.53.18h-1.97c-.18 0-.18-.18-.35-.18a4.24 4.24 0 0 1-.89-.53 7.06 7.06 0 0 0-2.66-.54 7.59 7.59 0 0 0-5 2 5.83 5.83 0 0 0-1.77 3 19.09 19.09 0 0 0-.18 3.2h-2a13.74 13.74 0 0 1 .71-4.62c.17-.35.17-.71.53-1.06.18-.18.18-.36.35-.53l.18-.18.18-.18c.18-.35.53-.53.71-.89l.18-.17h.17c.18-.18.36-.18.53-.36l1.07-.53a.18.18 0 0 0 .18-.18h.17c.18 0 .36-.18.54-.18.71-.17 1.42-.35 2.3-.53a5.17 5.17 0 0 0 2.31-.89 12.59 12.59 0 0 1 1.6-1.59l.35-.36c.18-.17.36-.17.53-.35s.36-.18.54-.36h.17c.18 0 .18-.17.36-.17.71-.18 1.42-.54 2.13-.71h.17a26.39 26.39 0 0 1 3.91-.36 39.68 39.68 0 0 1 8 1.42 47.27 47.27 0 0 0 7.28 1.24h.71a11.27 11.27 0 0 0 7.09-2.66c-.35-.35-.71-.53-1.06-.89a10.23 10.23 0 0 1-5.86 2.13V33.8a.68.68 0 0 0-.17-.53l-1.07-.71V29.9a.47.47 0 0 0-.53-.53h-1.77a.47.47 0 0 0-.54.53v.71l-1.59-1.07a.56.56 0 0 0-.71 0l-2.13 1.6v-1.42a.64.64 0 0 0-.18-.53l-1.03-.71V25.8a.47.47 0 0 0-.54-.53h-1.77a.46.46 0 0 0-.53.53v.71l-1.6-1.07a.56.56 0 0 0-.71 0l-5.5 3.91c-.18 0-.18.17-.18.35-4.08 1.42-7.45 1.78-10.47.89a29.11 29.11 0 0 1-9.93-5.68l-.15-.11a41 41 0 0 0-8.16-5.5 8 8 0 0 1-1.24 1.07 51.92 51.92 0 0 1 8.34 5.32c3.19 2.49 6.56 5 10.64 6.21 3.2 1.07 6.92.71 11-.71v3.9l1.07-.35v-4.66l5-3.55 2.13 1.42a.34.34 0 0 0 .54 0c.17-.18.35-.36.35-.53v-1.25h.53v2.49a.65.65 0 0 0 .18.53l1.07.71v1.95l-2.13 1.6a.64.64 0 0 0-.18.53v2.66a21.15 21.15 0 0 0-8.16-.18h-.18a18.23 18.23 0 0 0-2.84.89 16.69 16.69 0 0 1-12.06-1.06c-4.12-1.78-7.32-4.79-10.87-7.49-3.9-2.83-8.34-5.5-13.3-5.67-3.38-.18-6.92.17-10.29.17v1.5c3.19 0 6.38-.17 9.58-.17a14.34 14.34 0 0 1 5.5.88 35.81 35.81 0 0 1 8 4.62c2.84 1.95 5.5 4.43 8.52 6.21a27.27 27.27 0 0 0-6.57.17A22.84 22.84 0 0 0 59.75 39 14.56 14.56 0 0 0 56 41.8l1.06 1.06.71-.71.36-.35.17-.18h.18l1.6-1.06a8.16 8.16 0 0 1 1.77-.89.18.18 0 0 0 .18-.18h.18c.17 0 .35-.18.53-.18.35-.17.71-.17.89-.35a29.67 29.67 0 0 1 8.87-1.24c1.77 0 3.55.17 5.5.35h.18a21.15 21.15 0 0 0 8.69 1.42l-.53.53-.36.36h-.17c-.18 0-.18.18-.36.18s-.18 0-.35.17c-.18 0-.36.18-.54.18a11.24 11.24 0 0 0-2.3.53 12.19 12.19 0 0 0-2.31.89 8.59 8.59 0 0 0-3.37 3.73 20.14 20.14 0 0 0-1.07 5.5H75c-.53 0-1.06.17-1.59.17l.53 1.95a5.76 5.76 0 0 1 .17 1.78 7.35 7.35 0 0 1-.89 3.34A11.19 11.19 0 0 1 72 60.59c-.18.36-.54.54-.89.89h-3a1.56 1.56 0 0 0-.88.18v-3h1.59a5.28 5.28 0 0 0 1.42-.35l.53-.53a3.52 3.52 0 0 0 1.07-2.49.47.47 0 0 0-.53-.53h-2a3.08 3.08 0 0 0-2.12.71v-1.26a1.75 1.75 0 0 0 1.59-.18 1.9 1.9 0 0 0 1.07-1.23 2 2 0 0 0 2.48-2.49 1.92 1.92 0 0 0 1.42-1.42 2 2 0 0 0-.53-1.95 2 2 0 0 0 .53-2 1.93 1.93 0 0 0-1.42-1.42 2 2 0 0 0-2.48-2.48 1.93 1.93 0 0 0-1.42-1.42 2 2 0 0 0-2 .53 2 2 0 0 0-2-.53 1.93 1.93 0 0 0-1.42 1.42 2 2 0 0 0-2.48 2.48 1.93 1.93 0 0 0-1.42 1.42 2 2 0 0 0 .53 2 2 2 0 0 0-.53 1.95 1.92 1.92 0 0 0 1.42 1.42 2 2 0 0 0 2.57 2.49 1.9 1.9 0 0 0 1.07 1.24 2.44 2.44 0 0 0 1.6 0v1.6a3.07 3.07 0 0 0-2.13-.71h-2a.47.47 0 0 0-.54.53 3.49 3.49 0 0 0 1.07 2.48 2.64 2.64 0 0 0 1.24.89 9.92 9.92 0 0 0 2.31 0v3.19a24 24 0 0 0-8 2.84V64.15c.36-.17.53-.17.89-.35a8.57 8.57 0 0 1 1.77-.71 1.81 1.81 0 0 0 .89-.71 2.24 2.24 0 0 0 .18-1.07v-.51a.64.64 0 0 0-.18-.53c0-.18-.18-.36-.18-.53v-.18l-.09-.39a2.36 2.36 0 0 0-.54-.7l-.17-.18h-.18c-.53-.89-.89-.89-1.07-.71-.35 0-1.06.18-2 .18-.35 0-.53.17-.89.17a.17.17 0 0 0-.15-.13l-.18-.18-.35-.36c.17-.17.35-.53.53-.71.53-.71.88-1.42 1.06-1.59a2.52 2.52 0 0 0 .36-1.07 1.52 1.52 0 0 0-.53-1.09l-.17-.18a.18.18 0 0 1-.18-.18c-.18-.17-.36-.35-.53-.35l-.89-.71a3.3 3.3 0 0 0-1.42-.36 1 1 0 0 0-.89.54 10.94 10.94 0 0 0-1.42 1.41l-.71.71c-.17 0-.17 0-.35-.17-.18 0-.18 0-.18-.18l-.35-.18h-.36v-.88a4.57 4.57 0 0 0-.17-1.47v-.5c0-.35 0-.71-.36-.88a1.49 1.49 0 0 0-1.24-.71H45a1.6 1.6 0 0 0-1.25.53 1.39 1.39 0 0 0-.35.89.65.65 0 0 1-.18.53c0 .35-.17.89-.17 1.42 0 .35 0 .71-.18.88h-.53c-.18 0-.18 0-.36.18h-.18c-.17-.18-.35-.53-.53-.71A13.08 13.08 0 0 0 40 51.01a1 1 0 0 0-.89-.53 2 2 0 0 0-1.42.18l-1.06.53-1.07.71c-.17 0-.17.18-.35.36v1.59a9.78 9.78 0 0 0 .79 1.42 1.34 1.34 0 0 1 .35.89l-.17.18c-.18.17-.18.17-.18.35l-.18.18-.18.18c-.17 0-.17 0-.35-.18V59a.6.6 0 0 1 .35.17l.71.18.54-.88c0-.18.17-.18.35-.36l.18-.18.18-.17v-.18l.53-.53.71-.71-.4-.54v-.35a3.68 3.68 0 0 0-.71-1.07A12.24 12.24 0 0 1 37 52.8l.71-.53.71-.54a9.4 9.4 0 0 1 1.07 1.24 2.78 2.78 0 0 1 .71 1.07s0 .18.17.18l.36.71.71-.18h.18a1.31 1.31 0 0 1 .71-.18h.71a.65.65 0 0 0 .53-.18l.88-.17v-.89a7.72 7.72 0 0 1 .18-1.6c0-.35.18-.88.18-1.24v-.35h1.79v.35a2.58 2.58 0 0 0 .18 1.24v2.31l1.07.35h.53l.35.18a.56.56 0 0 1 .36.18.63.63 0 0 0 .35.18c.18 0 .18.17.36.17h.2l.71.36.54-.71.17-.18a2.24 2.24 0 0 1 .89-.89c.53-.53 1.07-.88 1.24-1.24l.71.53c.18 0 .18.18.36.36l.18.18.17.17a14.5 14.5 0 0 1-.88 1.42c-.36.54-.71.89-.89 1.25l-.53.71.53.53a2.56 2.56 0 0 0 .53.71c0 .18.18.35.36.71v.17l.35.71.71-.17a8.82 8.82 0 0 0 1.6-.36 7.24 7.24 0 0 1 1.77-.18v.18l.18.71c0 .36.18.53.18.71v.18c-.36.18-.89.35-1.6.71a12.09 12.09 0 0 0-1.42.53l-.71.18v1.77a4.92 4.92 0 0 1-.18 1.07v.71a9.56 9.56 0 0 0-1.59 1.24 15.89 15.89 0 0 1-3 1.42 32.39 32.39 0 0 0-14.19.71h.17c-.17-.18-.17-.36-.35-.71v-.19l.35-.35-.71.17v3.91c5-2.66 12.42-2.49 16.86-1.42m52.64-17.91v6.92a21.82 21.82 0 0 0-3-.71V52.8zm-8.69 5.85h-1.77v-2.3a1.24 1.24 0 1 1 2.48 0v2.3h-.71m3.19-14.55v.89h-3v-.89zm-3.72 4.26l4.61 2.84v7.45a3.13 3.13 0 0 1-1.24-.17h-1.07v-2.32a2.13 2.13 0 1 0-4.25 0v2.31h-.18c-.71 0-1.42.17-2.13.17v-7.45zM89.9 52.8v6.38h-.18c-1.07.18-2 .54-2.84.71V52.8zM102 34.16l5-3.55 2.13 1.42a.33.33 0 0 0 .53 0c.18-.18.36-.36.36-.53v-1.25h.53v2.49a.67.67 0 0 0 .17.53l1.07.71v4.44a40.56 40.56 0 0 1-6.79-1.25c-.89-.17-2-.53-3-.71zm-37.65 36.9A16.42 16.42 0 0 0 62.57 70c.36-.36.71-.53 1.07-.89 3.37-2.31 10.11-4.43 14.72-5a.66.66 0 0 1 .54.18l2.12.53h.18A40.52 40.52 0 0 0 65.77 70c-.36.18-.71.53-1.07.71l-.35.35m20.22-5c.71.36 1.42.89 2.13 1.25-5.14-.15-13.7 2.16-17.7 4.64-.36.18-.71.53-1.07.71a3.39 3.39 0 0 1-.7.53c-.54-.35-.89-.89-1.42-1.24a7.38 7.38 0 0 1 1.19-.89c3.72-2.3 12.6-5.14 17.56-5M73.93 60.8a5.44 5.44 0 0 0 .88-1.77 7.61 7.61 0 0 0 .71-3.37 9 9 0 0 0-.17-2.13 25.75 25.75 0 0 1 3.72-.18H80a8.78 8.78 0 0 0-.35 2.13 15.31 15.31 0 0 0 .35 2.81 12 12 0 0 0 .71 1.77c0 .18.18.18.18.36.35.53.71 1.24 1.06 1.77a3.86 3.86 0 0 0-1.06.71h-.18c-.18 0-.36-.18-.71-.18a19.45 19.45 0 0 0-3.37-.71 9 9 0 0 0-2.17-.21h-1.24a9.08 9.08 0 0 1 .71-1m-4.62-4.79h1.25a2.31 2.31 0 0 1-2.31 1.79H67v-.4a3.24 3.24 0 0 1 2.3-1.42m-.7-3.18c0 .17-.17.35-.53.35a1.06 1.06 0 0 1-.71-.18c-.17-.17-.35-.35-.35-.53v-1.25c.18 0 .53-.18.71-.18l.53 1.07c.35.35.35.53.35.71m2.31-1.07c-.18.18-.35.18-.71.18-.18 0-.35-.18-.53-.35l-.53-1.07.53-.53 1.06.53c.18.18.36.36.36.53a1 1 0 0 1-.18.71m1.6-2.84c0 .18-.18.36-.36.54h-.71l-1.06-.54a1 1 0 0 0 .18-.71h1.24c.18 0 .35.18.53.36.18-.18.18.18.18.35m-1.24-3.54a.53.53 0 0 1 .71 0c.17 0 .35.17.35.53a1.06 1.06 0 0 1-.18.71c-.17.18-.35.35-.53.35h-1.24c0-.17-.18-.53-.18-.71l1.07-.88zm-1.6-2.31c.18-.18.35-.36.53-.36s.53 0 .53.18a.65.65 0 0 1 .18.53c0 .18-.18.36-.35.54l-1.07.53-.49-.53zm-2.48-.89c0-.18.17-.35.35-.53s.35-.18.71-.18c.18 0 .35.18.53.36v.71l-.53 1.06a1.06 1.06 0 0 0-.71-.18v-1.24zm-2.84-.34c0-.18.17-.36.53-.36a1.06 1.06 0 0 1 .71.18c.18.18.35.35.35.53v1.24c-.17 0-.53.18-.71.18l-.71-1.06a1.12 1.12 0 0 1-.17-.71m-2.13 1.24c.17-.18.35-.18.71-.18.17 0 .35.18.53.36l.54 1.05-.53.53-1.07-.53c-.17-.18-.35-.35-.35-.53-.18-.36 0-.53.18-.71m-1.6 2.66c0-.18.18-.35.36-.53h.71l1.06.53a1.06 1.06 0 0 0-.18.71h-1.25c-.18 0-.35-.18-.53-.35-.18.17-.36-.18-.18-.36m1.07 3.73c-.18.17-.36.17-.71 0-.18 0-.36-.18-.36-.54a1.07 1.07 0 0 1 .18-.71c.18-.17.35-.35.53-.35h1.24c0 .18.18.53.18.71l-1.06.89zm1.59 2.13c-.18.17-.35.35-.53.35s-.53 0-.53-.18a.63.63 0 0 1-.18-.53c0-.18.18-.35.35-.53l1.07-.53.53.53zm.53-4.26a2.67 2.67 0 1 1 2.67 2.66 2.52 2.52 0 0 1-2.67-2.66m1.78 5.85c-.18.18-.36.18-.71.18-.18 0-.36-.18-.53-.36s0-.53 0-.7l.53-1.07a1.06 1.06 0 0 0 .71.18v1.24a.33.33 0 0 1 0 .53m-1.07 4.66a2.44 2.44 0 0 1-2.3-1.78h1.24a2.14 2.14 0 0 1 2.13 1.6v.18zm-5.14 8.33a22.19 22.19 0 0 1 7.81-2.33 7.13 7.13 0 0 1 2-.18h4.21a32 32 0 0 0-10.83 4.44c-.35.35-.71.53-1.06.88l-.18.18a18.7 18.7 0 0 0-3.9-1.77 7.24 7.24 0 0 1 2-1.25M50.68 132.45l-.68 1.07a8 8 0 0 1-2.12-1.07l1.06-1.42.71-.88c-.18 0-.71-.54-.89-.71-2.3-2-6.92-4.62-10.47-5-.35 0-2.12-.18-2.48-.18v3.73c.53 0 1.07.17 1.6.17a16.43 16.43 0 0 1 8.84 4.64l.35.35a7.83 7.83 0 0 0 3.2 1.6 4.77 4.77 0 0 1-1.42 2.66 1.81 1.81 0 0 0-.89-.71 4.27 4.27 0 0 0-2.84-.71 8.73 8.73 0 0 1-2.48-.35 6.25 6.25 0 0 1-2.66-2.13c-.54-.54-.71-1.25-1.42-1.78a4.19 4.19 0 0 0-2.31-.88v1.06a2.91 2.91 0 0 1 1.6.53c.35.18 1.24 1.6 1.77 2.13a10.42 10.42 0 0 0 2.31 1.78 10.62 10.62 0 0 0 3.55.71h.17a3.9 3.9 0 0 1 2 .35c.17 0 .35.35.71.71l.53.89a.18.18 0 0 0 .18-.18l.17-.18c.18-.18.54-.35.71-.53l-.17-.18A6.47 6.47 0 0 0 51 134.8v-.36a4.17 4.17 0 0 1 .18-.71h-.54l.54-.71.53-.53.53-.71-2.66-.53zm-13.13-5.5c-.35 0-.88-.18-1.24-.18l1.07-1.42h.53a3.34 3.34 0 0 1 1.42.36l-1.24 1.42a1.39 1.39 0 0 1-.54-.18m1.78.53l1.24-1.42c.89.36 1.6.71 2.49 1.07L42 128.37a16.29 16.29 0 0 0-2.66-.89m3.37 1.42l1.06-1.42a7.35 7.35 0 0 0 1.6.89l-1.07 1.43a6.84 6.84 0 0 0-1.6-.89m2.48 1.42l1.07-1.42a6.35 6.35 0 0 1 1.6 1.25l-1.07 1.59c-.53-.53-1.06-.88-1.6-1.42M47.14 116.13a10.55 10.55 0 0 1 5.86 2.84l.71-1.42a10 10 0 0 0-5.85-2.84zM43.94 121.8a12 12 0 0 1 5.86 2.84l.71-1.42a10 10 0 0 0-5.86-2.84zM45.54 118.97a11.9 11.9 0 0 1 5.85 2.83l.71-1.42a10 10 0 0 0-5.85-2.84zM43.06 115.8a18.75 18.75 0 0 0-3.55-2.13c.17-.17.53-.7.35-.88s-.53 0-.89.18c0-.36-.17-.71-.35-.71s-.53.71-.53.88a7.11 7.11 0 0 0-2.49-.53v1.6a16 16 0 0 1 6.75 2.84zM35.6 117.73h.18a16.72 16.72 0 0 1 4.79 2.48l.71-1.42a18.53 18.53 0 0 0-5.68-2.84v1.78M45 112.4c-.18 0-.18 0-.18-.17-.36-.18-.53-.36-.89-.54a.64.64 0 0 0 .36-.17c.17-.18.53-.71.35-.89s-.71 0-.89.18c0-.36-.17-.71-.35-.71s-.53.71-.53.88v.36a23.66 23.66 0 0 0-5-1.6c.18 0 .18-.18.18-.35s.17-1.07 0-1.07-.54.36-.71.71c-.18-.35-.53-.71-.71-.71s-.18.89 0 1.07v.17c-.36 0-.71-.17-1.07-.17v1.59a25.63 25.63 0 0 1 8.52 3z"/><path class="b" d="M47.14 139.02c-.36-.36-.54-.71-.89-.89a4.27 4.27 0 0 0-2.84-.71 8.69 8.69 0 0 1-2.48-.35 6.28 6.28 0 0 1-2.67-2.13c-.53-.54-.71-1.25-1.41-1.78-.36-.18-.71-.53-1.07-.53v1.06c.18 0 .18.18.36.18.35.18 1.24 1.6 1.77 2.13a10.17 10.17 0 0 0 2.31 1.8 10.13 10.13 0 0 0 3.54.71h.18a3.77 3.77 0 0 1 2 .36c.18 0 .36.35.71.71l.54.89a.17.17 0 0 0 .17-.18 4.24 4.24 0 0 0 .89-.53l-.18-.18a1.92 1.92 0 0 1-.88-.53M57.25 93.8a.77.77 0 0 0-.71-.71.76.76 0 0 0-.71.71.76.76 0 0 0 .71.71c.35.18.71-.17.71-.71M54.23 93.6a.76.76 0 0 0 .71-.71.76.76 0 0 0-.71-.71.76.76 0 0 0-.71.71c-.17.35.18.71.71.71M65.638 93.482l2.125-3.9.93.508-2.124 3.899zM68.07 94.958l2.125-3.899.931.508-2.125 3.898zM70.469 96.207l2.124-3.898.931.507-2.125 3.899zM83.69 104.06a6.36 6.36 0 0 0-1.78-.17c-1.06.17-2.13.53-3.19.71l-2.13.53a7.42 7.42 0 0 1-2 .35h-.71c-.36 0-.71-.17-1.07-.17a5.43 5.43 0 0 1-1.77-.71c-.53-.36-1.24-.71-1.78-1.07a5.79 5.79 0 0 0-1.77-1.06 4.86 4.86 0 0 0-2.31-.54 10.19 10.19 0 0 0-2.3.36c-.54.18-1.24.35-1.78.53-.17 0-.53.18-.71.18h-3.14l-1.6-.53h-.35c-.18 0-.36-.18-.53-.18-.36-.18-.54-.36-.89-.53-.18-.18-.36-.18-.53-.36-.18 0-.18-.18-.36-.18a25.22 25.22 0 0 0-8.34-4.42 32.7 32.7 0 0 0-7.45-1.42h-1.42v1.42h1.07a3.36 3.36 0 0 1 1.41.18 1.65 1.65 0 0 1 .89.17h.71a29.67 29.67 0 0 1 3.73.89 6.52 6.52 0 0 1 1.95.71c.18 0 .35.18.53.18h.36l1.06.53c.71.36 1.6.89 2.31 1.24l2.13 1.6-1.6 1.6a8.16 8.16 0 0 0-1.77-.89.65.65 0 0 0 .53-.18c.18-.18.71-.71.35-.89-.17-.17-.53 0-.88.18 0-.35-.18-.71-.36-.71s-.53.71-.53.89v.35a24.46 24.46 0 0 0-5.15-1.59l.18-.18c.18-.18.53-.89.18-1.06-.18-.18-.53.17-.89.35-.18-.35-.18-.53-.53-.71-.18 0-.36.71-.36.89v.35c-1.06-.17-2.3-.35-3.55-.53a.18.18 0 0 1 .18-.18c0-.17.18-1.06 0-1.06s-.53.35-.71.71c-.17-.36-.53-.71-.71-.71s-.17.89 0 1.06v.18h-.88v2h.71a30.12 30.12 0 0 1 12.77 3.2c-.35.53-.71 1.24-1.06 1.77a10 10 0 0 0-2-.89l.18-.17c.18-.18.71-.71.36-.89-.18-.18-.54 0-.89.18 0-.36-.18-.71-.36-.71s-.53.71-.53.88v.18a19.28 19.28 0 0 0-3.37-.89c.18-.17.53-.88.18-1.06-.18-.18-.53.18-.89.35-.18-.35-.18-.53-.53-.71-.18 0-.36.71-.36.89-.71-.18-1.59-.18-2.3-.35 0 0 0-.18.17-.18 0-.18.18-1.07 0-1.07s-.53.36-.7.71c-.18-.35-.54-.71-.71-.71s-.18.89 0 1.07v.18h-.5v1.77h.54c6.74.18 13 3 16.32 7.1-2-.89-4.61-1.78-4.61-1.78l-.71-.17-6.57 11.53a11.53 11.53 0 0 0-5.14-2.31v1.42a9.59 9.59 0 0 1 4.57 2.43l.89.35s3.54 1.42 4.61 2a24.11 24.11 0 0 1 3.9 2.66l.71.54 6.92-13.13-.53-.36-.53-.53-.18-.36a14.77 14.77 0 0 0-3.9-5 20.14 20.14 0 0 1 2.48-3v-2.13a16.73 16.73 0 0 0-3.9 4.08c-.36-.35-.89-.53-1.24-.89l.17-.17a12.73 12.73 0 0 1 .89-1.6 11.92 11.92 0 0 1 1.42-1.6 11.41 11.41 0 0 1 1.6-1.42 10.63 10.63 0 0 0 5.18 1.42 8.19 8.19 0 0 0 3-.53l2.13-.53h.88a1.57 1.57 0 0 1 .89.18c1.42.35 2.31 1.24 3.55 2a14.81 14.81 0 0 0 3.9 1.59 8.53 8.53 0 0 0 2.13.18 13.81 13.81 0 0 0 2.31-.53c.71-.18 1.24-.35 2-.53.53-.18 1.06-.36 1.42-.53.35 0 .53-.18.89-.18h1.06c.18 0 .36 0 .36.18a.17.17 0 0 1 .17.17c.18 0 .18.18.36.18l.18.18a11.56 11.56 0 0 0 2.48-.18c-.53-.35-.89-.53-1.42-.89-.18-1.06-.53-1.24-1.06-1.42M53.7 114.71c.89.53 1.6 1.24 2.13 1.6L50 127.48a23.07 23.07 0 0 0-3.9-2.48c-.71-.35-3.37-1.42-4.43-2l6.21-11c.88.35 2.83 1.06 4.25 1.59l1.6 1.07"/><path class="b" d="M94.69 102.29c-.54.18-1.07.18-1.42.35a2.24 2.24 0 0 1-1.07.18h-1.42c-.35 0-.53-.18-.88-.18a4.41 4.41 0 0 0-1.42-.35 1.3 1.3 0 0 1-.71-.36h-.18c-.18 0-.18-.17-.36-.17-.17-.18-.35-.18-.71-.36l.89-13.13a2.58 2.58 0 0 1-1.24.18H86l-.35 6-1.24-.35 1.42-5.68a4.29 4.29 0 0 1-1.42-.35L83 93.8l-1.25-.35 2.49-5.5c-.53-.36-1.07-.71-1.07-.89l-6.38 14c-.18.17-.18.53-.36.71H74.1c-.53-.18-1.24-.36-1.77-.54h-.18a.64.64 0 0 1-.35-.17c-.36-.18-.53-.36-.89-.53l-1.6-1.07a8.78 8.78 0 0 0-3.54-1.42 14 14 0 0 0-3.73.71c-.35.18-.89.18-1.24.36H58a12.09 12.09 0 0 0 2.84-6.75v-1.78h-1.28a7.79 7.79 0 0 1-2.49-.71l19-10.29-1.6 3c-.18.35 0 .53.18.7l.17.18a1.43 1.43 0 1 1-2 .53l-.82-.51a2.93 2.93 0 0 0-.18 2.13l-5.32.89-.36-.18c-.35-.18-.53 0-.71.18l-3.72 6.74c-.18.36 0 .53.17.71l10.47 5.68c.36.18.53 0 .71-.18l3.73-6.74c.17-.36 0-.53-.18-.71l-.89-.53-1.42-4.44a2.54 2.54 0 0 0 2.49-2.48 2.22 2.22 0 0 0-1.07-2L78 78.51l-.71-2.3L53 84.9l.89-1.6a1.44 1.44 0 0 0-.53-.17c-.36-.18-.71-.53-1.07-.71a20.7 20.7 0 0 0-3.37-1.78l.89-1.77.88-1.6 1.07-1.77-6-.36 3.37 3L48 80.29a28.52 28.52 0 0 0-9.58-1.78h-1.93l-1.06 2v4.25H39a23.86 23.86 0 0 1 14.2 5.68 6.84 6.84 0 0 0 .71.53 13.57 13.57 0 0 0 5.14 2 8.72 8.72 0 0 1-3 6.21c-.18-.18-.53-.18-.89-.36a15.31 15.31 0 0 1-1.77-1.06A25.25 25.25 0 0 0 45 93.24a32.8 32.8 0 0 0-7.44-1.44h-2.31v1.42h2a3.43 3.43 0 0 1 1.42.18 1.61 1.61 0 0 1 .89.18h.71a27.84 27.84 0 0 1 3.72.88 6.52 6.52 0 0 1 2 .71c.18 0 .36.18.54.18h.35l1.07.53c.71.36 1.59.89 2.3 1.24a23.61 23.61 0 0 1 2.13 1.6l.18.18a12.52 12.52 0 0 0 6 2.3 13.94 13.94 0 0 0 2.66-.17 4.07 4.07 0 0 0 1.42-.36c.71-.17 1.24-.35 1.95-.53a4.12 4.12 0 0 1 3.2.71 10.28 10.28 0 0 1 1.42 1.06 7.07 7.07 0 0 0 1.59.89 13.16 13.16 0 0 0 3.73 1.07 9.94 9.94 0 0 0 3.19-.36c.18 0 .36-.18.71-.18l1.57-.53c.18 0 .18 0 .35-.18h.18c.18 0 .53-.17.71-.17h2.31a2.46 2.46 0 0 1 1.06.35h.18c.18.18.53.18.71.36.18 0 .18.17.36.17h.35c.35.18.89.36 1.24.54a13.29 13.29 0 0 0 2.84.88 5.76 5.76 0 0 0 2.48 0c.36-.17.71-.17 1.25-.35.17 0 .53-.18.71-.18h1.06c.18 0 .53.18.71.18.53-.18 1.24-.36 1.77-.53a4.56 4.56 0 0 0-2.3-1.07c-.36-.71-.89-.71-1.24-.53M73 87.03l1.42 3.9-5.82-3.37zm2.84 5.86l-3.19 5.85-9.55-5.14 3.2-5.86zm-.14-14.38l-7.1 3.91-2.12-.53zM64.52 82.8l2.13.53-2.84 1.6zm-1.42.18l-.71 2.48-3.19-1.09zM50.68 85.8h-.17a27.68 27.68 0 0 0-11-3.19 19 19 0 0 0-3.2 0l1.42-2.67h.89a23.92 23.92 0 0 1 13.31 3.86zm4.44 3.19a1.21 1.21 0 0 1-.71-.53l-2.13-1.6v-.17l3.9-1.42zm2.48-3.72l3.4 1.05-4.46 2.48zm23.78 15.43a6.2 6.2 0 0 1-1.77.36 4.41 4.41 0 0 1-1.42.35l3-6.74 1.42.36zm3.9.18a10.3 10.3 0 0 0-2.48-.35l1.24-5 1.42.35zM109.06 66.63a10 10 0 0 0-.53-1.25.66.66 0 0 0 .17-.53c0-.17-.17-.35-.53-.53a.18.18 0 0 1-.18-.18c0-.17 0-.17-.17-.35-.36-.36-.54-.71-.89-.89a.33.33 0 0 0-.53 0c-.18 0-.18.18-.18.36s0 .17.18.35l.17.18.54.53v.18c-.18.18-.18.18-.18.35s0 .36.18.36c.17.17.17.17.35.17a2.52 2.52 0 0 1 .36 1.07l.17.18h1.07zM106.22 70.35a1.34 1.34 0 0 0 .71.36v-.36a4.25 4.25 0 0 1 1.06-2v-.18h.18l3 .18h.17v.18a5.84 5.84 0 0 1 .89 2.13v1.64c.53 0 .89-.17 1.24-.17v-1.42a6.15 6.15 0 0 0-1.06-2.49c-.18-.17-.18-.35-.53-.53a1.35 1.35 0 0 0-.71-.18l-3-.17a1.1 1.1 0 0 0-.71.17c-.18.18-.35.36-.53.36a5.77 5.77 0 0 0-1.24 2.31c.35 0 .35 0 .53.17"/></svg>